<?xml version="1.0" encoding="UTF-8"?>
<svg xmlns="http://www.w3.org/2000/svg" width="210mm" height="148mm" viewBox="0 0 840 592" role="img" aria-label="GSM Balikin — 10 Ukuran minimum">
<title>GSM Balikin — 10 Ukuran minimum</title>
<desc>A5 lanskap 210 x 148 mm, 4 satuan = 1 mm. Huruf: Archivo, Plus Jakarta Sans, Caveat.</desc>
<defs></defs>
<rect x="0" y="0" width="840" height="592" fill="#FBF8F3"/>
<rect x="0" y="0" width="840" height="592" fill="#FBF8F3"/>
<g opacity="0.05"><g fill="none"><path d="M-8 131L252 304V650L-8 824L-268 650V304Z" fill="#0F5A48" stroke="none" stroke-width="0" stroke-linejoin="miter"></path></g></g>
<rect x="56" y="196" width="728" height="214" rx="26" fill="#FFFFFF"/><rect x="56" y="196" width="727" height="213" rx="26" fill="none" stroke="#E2DACB" stroke-width="1"/>
<g fill="none"><path d="M178 231L215 254V308L178 331L141 308V254Z" stroke="#1B7A63" stroke-width="8" stroke-linejoin="miter"></path><path d="M189 275L183 285H173L167 275L173 265H183Z" fill="#C8952E"></path></g>
<text x="148" y="379" font-family="Archivo" font-size="20" font-weight="700" fill="#12332C" letter-spacing="0">18 mm</text>
<text x="158" y="398" font-family="Plus Jakarta Sans" font-size="9" font-weight="700" fill="#6E8078" letter-spacing="2">CETAK</text>
<g fill="none"><path d="M421 251L443 265V297L421 311L399 297V265Z" stroke="#1B7A63" stroke-width="3" stroke-linejoin="miter"></path><path d="M428 278L424 284H418L414 278L418 271H424Z" fill="#C8952E"></path></g>
<text x="397" y="379" font-family="Archivo" font-size="20" font-weight="700" fill="#12332C" letter-spacing="0">32 px</text>
<text x="402" y="398" font-family="Plus Jakarta Sans" font-size="9" font-weight="700" fill="#6E8078" letter-spacing="2">LAYAR</text>
<rect x="299" y="227" width="1" height="180" fill="#E2DACB"/>
<g fill="none"><path d="M664 265L676 272V290L664 297L652 290V272Z" stroke="#1B7A63" stroke-width="1" stroke-linejoin="miter"></path><path d="M668 279L666 282H662L660 279L662 276H666Z" fill="#C8952E"></path></g>
<text x="640" y="379" font-family="Archivo" font-size="20" font-weight="700" fill="#12332C" letter-spacing="0">16 px</text>
<text x="636" y="398" font-family="Plus Jakarta Sans" font-size="9" font-weight="700" fill="#6E8078" letter-spacing="2">FAVICON</text>
<rect x="542" y="227" width="1" height="180" fill="#E2DACB"/>
<rect x="56" y="72" width="728" height="1" fill="#E2DACB"/>
<text x="56" y="51" font-family="Plus Jakarta Sans" font-size="9" font-weight="700" fill="#6E8078" letter-spacing="3">BAB II · IDENTITAS UTAMA</text>
<text x="766" y="50" font-family="Archivo" font-size="15" font-weight="700" fill="#6E8078">10</text>
<text x="56" y="111" font-family="Plus Jakarta Sans" font-size="9" font-weight="700" fill="#6E8078" letter-spacing="3">BAGIAN 04</text>
<text x="56" y="160" font-family="Archivo" font-size="44" font-weight="700" fill="#12332C" letter-spacing="-2">Ukuran</text>
<text x="203" y="160" font-family="Archivo" font-size="44" font-weight="400" fill="#12332C" letter-spacing="-2">minimum</text>
<text x="428" y="127" font-family="Plus Jakarta Sans" font-size="12" font-weight="400" fill="#6E8078">Di bawah ukuran ini sel emasnya menutup dan heksagonnya jadi</text><text x="610" y="146" font-family="Plus Jakarta Sans" font-size="12" font-weight="400" fill="#6E8078">gumpalan. Jangan dipaksakan.</text>
<rect x="56" y="436" width="228" height="92" rx="16" fill="#F2ECE1"/>
<text x="74" y="459" font-family="Plus Jakarta Sans" font-size="9" font-weight="700" fill="#6E8078" letter-spacing="2">CETAK 18 MM</text>
<text x="74" y="487" font-family="Plus Jakarta Sans" font-size="11" font-weight="400" fill="#12332C">Diukur dari lebar heksagon, bukan</text><text x="74" y="503" font-family="Plus Jakarta Sans" font-size="11" font-weight="400" fill="#12332C">tinggi.</text>
<rect x="299" y="436" width="228" height="92" rx="16" fill="#F2ECE1"/>
<text x="317" y="459" font-family="Plus Jakarta Sans" font-size="9" font-weight="700" fill="#6E8078" letter-spacing="2">LAYAR 32 PX</text>
<text x="317" y="487" font-family="Plus Jakarta Sans" font-size="11" font-weight="400" fill="#12332C">Di bawah ini logogram saja, tanpa</text><text x="317" y="503" font-family="Plus Jakarta Sans" font-size="11" font-weight="400" fill="#12332C">wordmark.</text>
<rect x="542" y="436" width="228" height="92" rx="16" fill="#F2ECE1"/>
<text x="560" y="459" font-family="Plus Jakarta Sans" font-size="9" font-weight="700" fill="#6E8078" letter-spacing="2">FAVICON 16 PX</text>
<text x="560" y="487" font-family="Plus Jakarta Sans" font-size="11" font-weight="400" fill="#12332C">Versi padat khusus — bukan logo</text><text x="560" y="503" font-family="Plus Jakarta Sans" font-size="11" font-weight="400" fill="#12332C">diperkecil.</text>
</svg>
