<?xml version="1.0" encoding="UTF-8"?>
<svg xmlns="http://www.w3.org/2000/svg" width="210mm" height="148mm" viewBox="0 0 840 592" role="img" aria-label="GSM Balikin — 18 Pustaka ikon">
<title>GSM Balikin — 18 Pustaka ikon</title>
<desc>A5 lanskap 210 x 148 mm, 4 satuan = 1 mm. Huruf: Archivo, Plus Jakarta Sans, Caveat.</desc>
<defs></defs>
<rect x="0" y="0" width="840" height="592" fill="#FBF8F3"/>
<rect x="0" y="0" width="840" height="592" fill="#FBF8F3"/>
<g opacity="0.05"><g fill="none"><path d="M-8 131L252 304V650L-8 824L-268 650V304Z" fill="#C8952E" stroke="none" stroke-width="0" stroke-linejoin="miter"></path></g></g>
<rect x="56" y="72" width="728" height="1" fill="#E2DACB"/>
<rect x="56" y="204" width="84" height="84" rx="16" fill="#FFFFFF"/><rect x="56" y="204" width="83" height="83" rx="16" fill="none" stroke="#E2DACB" stroke-width="1"/>
<g color="#1B7A63" fill="none" stroke-linejoin="miter" stroke-miterlimit="8"><path d="M97 235L105 240V249L97 254L89 249V240Z" stroke="currentColor" stroke-width="2"></path><path d="M103 252L111 259" stroke="currentColor" stroke-width="3"></path></g>
<rect x="148" y="204" width="84" height="84" rx="16" fill="#FFFFFF"/><rect x="148" y="204" width="83" height="83" rx="16" fill="none" stroke="#E2DACB" stroke-width="1"/>
<g color="#1B7A63" fill="none" stroke-linejoin="miter" stroke-miterlimit="8"><path d="M184 241 186 237h8l-1 4" stroke="currentColor" stroke-width="2"></path><path d="M181 241H201L204 246V252L201 257H181L178 252V246Z" stroke="currentColor" stroke-width="2"></path><path d="M193 246h11v6H193z" stroke="currentColor" stroke-width="2"></path></g>
<rect x="240" y="204" width="84" height="84" rx="16" fill="#FFFFFF"/><rect x="240" y="204" width="83" height="83" rx="16" fill="none" stroke="#E2DACB" stroke-width="1"/>
<g color="#1B7A63" fill="none" stroke-linejoin="miter" stroke-miterlimit="8"><path d="M278 240L284 236L289 240V246L284 249L278 246Z" stroke="currentColor" stroke-width="2"></path><path d="M284 249V259" stroke="currentColor" stroke-width="2"></path><path d="M284 252H290" stroke="currentColor" stroke-width="2"></path><path d="M284 256H288" stroke="currentColor" stroke-width="2"></path></g>
<rect x="332" y="204" width="84" height="84" rx="16" fill="#FFFFFF"/><rect x="332" y="204" width="83" height="83" rx="16" fill="none" stroke="#E2DACB" stroke-width="1"/>
<g color="#1B7A63" fill="none" stroke-linejoin="miter" stroke-miterlimit="8"><path d="M369 233H381L383 237V257L381 261H369L367 257V237Z" stroke="currentColor" stroke-width="2"></path><path d="M372 237H378" stroke="currentColor" stroke-width="2"></path><path d="M372 257H378" stroke="currentColor" stroke-width="2"></path></g>
<rect x="424" y="204" width="84" height="84" rx="16" fill="#FFFFFF"/><rect x="424" y="204" width="83" height="83" rx="16" fill="none" stroke="#E2DACB" stroke-width="1"/>
<g color="#1B7A63" fill="none" stroke-linejoin="miter" stroke-miterlimit="8"><path d="M458 236L461 233H470L477 240V258L474 261H461L458 258Z" stroke="currentColor" stroke-width="2"></path><path d="M469 234V241H476" stroke="currentColor" stroke-width="2"></path><path d="M463 247H472M463 252H472M463 256H468" stroke="currentColor" stroke-width="2"></path></g>
<rect x="516" y="204" width="84" height="84" rx="16" fill="#FFFFFF"/><rect x="516" y="204" width="83" height="83" rx="16" fill="none" stroke="#E2DACB" stroke-width="1"/>
<g color="#1B7A63" fill="none" stroke-linejoin="miter" stroke-miterlimit="8"><path d="M547 238H571L573 242V254L571 258H547L545 254V242Z" stroke="currentColor" stroke-width="2"></path><path d="M554 244L557 246V250L554 252L550 250V246Z" stroke="currentColor" stroke-width="2"></path><path d="M561 246H569M561 250H566" stroke="currentColor" stroke-width="2"></path></g>
<rect x="608" y="204" width="84" height="84" rx="16" fill="#FFFFFF"/><rect x="608" y="204" width="83" height="83" rx="16" fill="none" stroke="#E2DACB" stroke-width="1"/>
<g color="#1B7A63" fill="none" stroke-linejoin="miter" stroke-miterlimit="8"><path d="M637 239L646 235L656 239L665 235V255L656 259L646 255L637 259Z" stroke="currentColor" stroke-width="2"></path><path d="M646 235V255M656 239V259" stroke="currentColor" stroke-width="2"></path></g>
<rect x="700" y="204" width="84" height="84" rx="16" fill="#FFFFFF"/><rect x="700" y="204" width="83" height="83" rx="16" fill="none" stroke="#E2DACB" stroke-width="1"/>
<g color="#1B7A63" fill="none" stroke-linejoin="miter" stroke-miterlimit="8"><path d="M739 237h8l4 5v6L743 259 735 248V242L739 237Z" stroke="currentColor" stroke-width="2"></path><path d="M746 244L744 247L742 247L740 244L742 242L744 242Z" fill="currentColor"></path></g>
<rect x="56" y="296" width="84" height="84" rx="16" fill="#FFFFFF"/><rect x="56" y="296" width="83" height="83" rx="16" fill="none" stroke="#E2DACB" stroke-width="1"/>
<g color="#1B7A63" fill="none" stroke-linejoin="miter" stroke-miterlimit="8"><path d="M93 344V337L96 331H102L105 337V344L109 349H89Z" stroke="currentColor" stroke-width="2"></path><path d="M96 352H102" stroke="currentColor" stroke-width="2"></path></g>
<rect x="148" y="296" width="84" height="84" rx="16" fill="#FFFFFF"/><rect x="148" y="296" width="83" height="83" rx="16" fill="none" stroke="#E2DACB" stroke-width="1"/>
<g color="#1B7A63" fill="none" stroke-linejoin="miter" stroke-miterlimit="8"><path d="M186 337V333L188 329H194L196 333V337" stroke="currentColor" stroke-width="2"></path><path d="M181 337H201L203 341V349L201 352H181L179 349V341Z" stroke="currentColor" stroke-width="2"></path><path d="M191 342L193 343V346L191 347L189 346V343Z" fill="currentColor"></path></g>
<rect x="240" y="296" width="84" height="84" rx="16" fill="#FFFFFF"/><rect x="240" y="296" width="83" height="83" rx="16" fill="none" stroke="#E2DACB" stroke-width="1"/>
<g color="#1B7A63" fill="none" stroke-linejoin="miter" stroke-miterlimit="8"><path d="M270 329H296L298 334V344L296 348H283L276 353V348H270L268 344V334Z" stroke="currentColor" stroke-width="2"></path><path d="M277 337L279 339L277 341L275 339Z" fill="currentColor"></path><path d="M283 337L285 339L283 341L281 339Z" fill="currentColor"></path><path d="M289 337L291 339L289 341L287 339Z" fill="currentColor"></path></g>
<rect x="332" y="296" width="84" height="84" rx="16" fill="#FFFFFF"/><rect x="332" y="296" width="83" height="83" rx="16" fill="none" stroke="#E2DACB" stroke-width="1"/>
<g color="#1B7A63" fill="none" stroke-linejoin="miter" stroke-miterlimit="8"><path d="M375 327L380 330V336L375 338L370 336V330Z" stroke="currentColor" stroke-width="2"></path><path d="M364 352V347L370 342H380L386 347V352" stroke="currentColor" stroke-width="2"></path></g>
<rect x="424" y="296" width="84" height="84" rx="16" fill="#FFFFFF"/><rect x="424" y="296" width="83" height="83" rx="16" fill="none" stroke="#E2DACB" stroke-width="1"/>
<g color="#1B7A63" fill="none" stroke-linejoin="miter" stroke-miterlimit="8"><path d="M467 326L471 335L480 339L471 343L467 352L463 343L454 339L463 335Z" stroke="currentColor" stroke-width="2"></path></g>
<rect x="516" y="296" width="84" height="84" rx="16" fill="#FFFFFF"/><rect x="516" y="296" width="83" height="83" rx="16" fill="none" stroke="#E2DACB" stroke-width="1"/>
<g color="#1B7A63" fill="none" stroke-linejoin="miter" stroke-miterlimit="8"><path d="M559 325L571 329V338L559 353L547 338V329Z" stroke="currentColor" stroke-width="2"></path><path d="M554 338L558 342L565 334" stroke="currentColor" stroke-width="2"></path></g>
<rect x="608" y="296" width="84" height="84" rx="16" fill="#FFFFFF"/><rect x="608" y="296" width="83" height="83" rx="16" fill="none" stroke="#E2DACB" stroke-width="1"/>
<g color="#1B7A63" fill="none" stroke-linejoin="miter" stroke-miterlimit="8"><path d="M651 326L662 333V345L651 352L640 345V333Z" stroke="currentColor" stroke-width="2"></path><path d="M651 334V340H656" stroke="currentColor" stroke-width="2"></path></g>
<rect x="700" y="296" width="84" height="84" rx="16" fill="#FFFFFF"/><rect x="700" y="296" width="83" height="83" rx="16" fill="none" stroke="#E2DACB" stroke-width="1"/>
<g color="#1B7A63" fill="none" stroke-linejoin="miter" stroke-miterlimit="8"><path d="M732 340 740 349 755 330" stroke="currentColor" stroke-width="3"></path></g>
<text x="56" y="51" font-family="Plus Jakarta Sans" font-size="9" font-weight="700" fill="#6E8078" letter-spacing="3">BAB III · ELEMEN VISUAL</text>
<text x="766" y="50" font-family="Archivo" font-size="15" font-weight="700" fill="#6E8078">18</text>
<text x="56" y="111" font-family="Plus Jakarta Sans" font-size="9" font-weight="700" fill="#6E8078" letter-spacing="3">BAGIAN 04</text>
<text x="56" y="160" font-family="Archivo" font-size="44" font-weight="700" fill="#12332C" letter-spacing="-2">Pustaka</text>
<text x="220" y="160" font-family="Archivo" font-size="44" font-weight="400" fill="#12332C" letter-spacing="-2">ikon</text>
<rect x="470" y="104" width="98" height="62" rx="16" fill="#FFFFFF"/><rect x="470" y="104" width="97" height="61" rx="16" fill="none" stroke="#E2DACB" stroke-width="1"/>
<text x="508" y="135" font-family="Archivo" font-size="22" font-weight="700" fill="#1B7A63" letter-spacing="-1">98</text>
<text x="498" y="151" font-family="Plus Jakarta Sans" font-size="8" font-weight="700" fill="#6E8078" letter-spacing="2">BENTUK</text>
<rect x="578" y="104" width="98" height="62" rx="16" fill="#FFFFFF"/><rect x="578" y="104" width="97" height="61" rx="16" fill="none" stroke="#E2DACB" stroke-width="1"/>
<text x="622" y="135" font-family="Archivo" font-size="22" font-weight="700" fill="#1B7A63" letter-spacing="-1">2</text>
<text x="607" y="151" font-family="Plus Jakarta Sans" font-size="8" font-weight="700" fill="#6E8078" letter-spacing="2">VARIAN</text>
<rect x="686" y="104" width="98" height="62" rx="16" fill="#FFFFFF"/><rect x="686" y="104" width="97" height="61" rx="16" fill="none" stroke="#E2DACB" stroke-width="1"/>
<text x="718" y="135" font-family="Archivo" font-size="22" font-weight="700" fill="#1B7A63" letter-spacing="-1">196</text>
<text x="704" y="151" font-family="Plus Jakarta Sans" font-size="8" font-weight="700" fill="#6E8078" letter-spacing="2">KOMPONEN</text>
<rect x="56" y="414" width="228" height="88" rx="16" fill="#F2ECE1"/>
<text x="74" y="437" font-family="Plus Jakarta Sans" font-size="9" font-weight="700" fill="#6E8078" letter-spacing="2">KOTAK</text>
<text x="74" y="465" font-family="Plus Jakarta Sans" font-size="11" font-weight="400" fill="#12332C">Semua ikon digambar di kotak 100 ×</text><text x="74" y="481" font-family="Plus Jakarta Sans" font-size="11" font-weight="400" fill="#12332C">100.</text>
<rect x="299" y="414" width="228" height="88" rx="16" fill="#F2ECE1"/>
<text x="317" y="437" font-family="Plus Jakarta Sans" font-size="9" font-weight="700" fill="#6E8078" letter-spacing="2">TEBAL GARIS</text>
<text x="317" y="465" font-family="Plus Jakarta Sans" font-size="11" font-weight="400" fill="#12332C">6–7 satuan, tidak menipis waktu</text><text x="317" y="481" font-family="Plus Jakarta Sans" font-size="11" font-weight="400" fill="#12332C">diperkecil.</text>
<rect x="542" y="414" width="228" height="88" rx="16" fill="#F2ECE1"/>
<text x="560" y="437" font-family="Plus Jakarta Sans" font-size="9" font-weight="700" fill="#6E8078" letter-spacing="2">VARIAN</text>
<text x="560" y="465" font-family="Plus Jakarta Sans" font-size="11" font-weight="400" fill="#12332C">Garis untuk biasa, padat untuk</text><text x="560" y="481" font-family="Plus Jakarta Sans" font-size="11" font-weight="400" fill="#12332C">keadaan aktif.</text>
<text x="56" y="546" font-family="Plus Jakarta Sans" font-size="9" font-weight="700" fill="#6E8078" letter-spacing="3">16 DARI 98 BENTUK — LEMBAR LENGKAP ADA DI LAMPIRAN</text>
</svg>
