<?xml version="1.0" encoding="UTF-8"?>
<svg xmlns="http://www.w3.org/2000/svg" width="384" height="844" viewBox="0 0 384 844" role="img" aria-label="Balikin — Beranda B: lapor teal + pintu jelajahi">
<title>Balikin — Beranda B: lapor teal + pintu jelajahi</title>
<desc>Satuan piksel logis. Huruf: Archivo, Plus Jakarta Sans.</desc>
<defs><linearGradient id="g1" gradientUnits="userSpaceOnUse" x1="177" y1="-6" x2="207" y2="850"><stop offset="0%" stop-color="#DCE9E1" stop-opacity="1"/><stop offset="52%" stop-color="#EDE8DE" stop-opacity="1"/><stop offset="100%" stop-color="#F6F2EA" stop-opacity="1"/></linearGradient><filter id="f2" x="-60%" y="-60%" width="220%" height="220%"><feDropShadow dx="0" dy="10" stdDeviation="15" flood-color="#12332C" flood-opacity="0.09"/></filter><linearGradient id="g4" gradientUnits="userSpaceOnUse" x1="87" y1="321" x2="297" y2="571"><stop offset="0%" stop-color="#1B7A63" stop-opacity="1"/><stop offset="78%" stop-color="#0F5A48" stop-opacity="1"/><stop offset="100%" stop-color="#0B4638" stop-opacity="1"/></linearGradient><filter id="f5" x="-60%" y="-60%" width="220%" height="220%"><feDropShadow dx="0" dy="12" stdDeviation="14" flood-color="#0F5A48" flood-opacity="0.26"/></filter><clipPath id="c7"><path d="M51 402L73 402L84 427L73 452L51 452L40 427Z"/></clipPath><filter id="f9" x="-60%" y="-60%" width="220%" height="220%"><feDropShadow dx="0" dy="8" stdDeviation="9" flood-color="#0D2F29" flood-opacity="0.3"/></filter><filter id="f11" x="-60%" y="-60%" width="220%" height="220%"><feDropShadow dx="0" dy="10" stdDeviation="15" flood-color="#12332C" flood-opacity="0.09"/></filter><filter id="f13" x="-60%" y="-60%" width="220%" height="220%"><feDropShadow dx="0" dy="4" stdDeviation="5" flood-color="#12332C" flood-opacity="0.08"/></filter><filter id="f14" x="-60%" y="-60%" width="220%" height="220%"><feDropShadow dx="0" dy="4" stdDeviation="5" flood-color="#12332C" flood-opacity="0.08"/></filter><filter id="f15" x="-60%" y="-60%" width="220%" height="220%"><feDropShadow dx="0" dy="4" stdDeviation="5" flood-color="#12332C" flood-opacity="0.08"/></filter><filter id="f16" x="-60%" y="-60%" width="220%" height="220%"><feDropShadow dx="0" dy="4" stdDeviation="5" flood-color="#12332C" flood-opacity="0.08"/></filter><linearGradient id="g23" gradientUnits="userSpaceOnUse" x1="28" y1="58" x2="56" y2="106"><stop offset="0%" stop-color="#8FD4C4" stop-opacity="1"/><stop offset="100%" stop-color="#1B7A63" stop-opacity="1"/></linearGradient><filter id="f24" x="-60%" y="-60%" width="220%" height="220%"><feDropShadow dx="0" dy="4" stdDeviation="7" flood-color="#12332C" flood-opacity="0.14"/></filter><filter id="f26" x="-60%" y="-60%" width="220%" height="220%"><feDropShadow dx="0" dy="4" stdDeviation="7" flood-color="#12332C" flood-opacity="0.1"/></filter><filter id="f29" x="-60%" y="-60%" width="220%" height="220%"><feDropShadow dx="0" dy="4" stdDeviation="7" flood-color="#12332C" flood-opacity="0.1"/></filter><filter id="f31" x="-60%" y="-60%" width="220%" height="220%"><feDropShadow dx="0" dy="4" stdDeviation="7" flood-color="#12332C" flood-opacity="0.1"/></filter><filter id="f33" x="-60%" y="-60%" width="220%" height="220%"><feDropShadow dx="0" dy="12" stdDeviation="15" flood-color="#12332C" flood-opacity="0.16"/></filter><linearGradient id="g38" gradientUnits="userSpaceOnUse" x1="310" y1="750" x2="356" y2="828"><stop offset="0%" stop-color="#25946F" stop-opacity="1"/><stop offset="100%" stop-color="#0F5A48" stop-opacity="1"/></linearGradient><clipPath id="c39"><path d="M316 756L350 756L366 789L350 822L316 822L300 789Z"/></clipPath></defs>
<rect x="0" y="0" width="1122" height="844" fill="#F6F2EA"/>
<rect x="0" y="0" width="384" height="844" fill="url(#g1)"/>
<rect x="22" y="128" width="340" height="232" rx="26" fill="#FFFFFF" filter="url(#f2)"/>
<g fill="none"><defs><filter id="bay-u3" x="-40%" y="-40%" width="180%" height="180%"><feDropShadow dx="0" dy="5" stdDeviation="7" flood-color="#123B34" flood-opacity="0.2"></feDropShadow></filter><linearGradient id="f1-u3" x1="0%" y1="0%" x2="30%" y2="100%"><stop offset="0%" stop-color="#D9713F"></stop><stop offset="100%" stop-color="#C05C33"></stop></linearGradient><linearGradient id="f2-u3" x1="0%" y1="0%" x2="30%" y2="100%"><stop offset="0%" stop-color="#E9BC5A"></stop><stop offset="100%" stop-color="#D8A43C"></stop></linearGradient><linearGradient id="f3-u3" x1="0%" y1="0%" x2="30%" y2="100%"><stop offset="0%" stop-color="#A8DFCE"></stop><stop offset="100%" stop-color="#7CC3AE"></stop></linearGradient><linearGradient id="f4-u3" x1="0%" y1="0%" x2="30%" y2="100%"><stop offset="0%" stop-color="#F2ECE0"></stop><stop offset="100%" stop-color="#DDD5C6"></stop></linearGradient><linearGradient id="f5-u3" x1="0%" y1="0%" x2="30%" y2="100%"><stop offset="0%" stop-color="#2E9A7C"></stop><stop offset="100%" stop-color="#0F5A48"></stop></linearGradient></defs><g transform="rotate(-17 80 308)" filter="url(#bay-u3)"><rect x="32" y="268" width="74" height="26" rx="9" fill="#B04A22"></rect><rect x="26" y="280" width="108" height="80" rx="15" fill="url(#f1-u3)"></rect></g><g transform="rotate(17 304 308)" filter="url(#bay-u3)"><rect x="256" y="268" width="74" height="26" rx="9" fill="#C9C0AE"></rect><rect x="250" y="280" width="108" height="80" rx="15" fill="url(#f4-u3)"></rect></g><g transform="rotate(-10 124 295)" filter="url(#bay-u3)"><rect x="72" y="252" width="82" height="26" rx="9" fill="#C99A2C"></rect><rect x="66" y="264" width="116" height="86" rx="15" fill="url(#f2-u3)"></rect></g><g transform="rotate(10 260 295)" filter="url(#bay-u3)"><rect x="208" y="252" width="82" height="26" rx="9" fill="#5FB29A"></rect><rect x="202" y="264" width="116" height="86" rx="15" fill="url(#f3-u3)"></rect></g><g transform="rotate(-2 192 313)" filter="url(#bay-u3)"><rect x="126" y="262" width="110" height="26" rx="9" fill="#0B463A"></rect><rect x="120" y="274" width="144" height="102" rx="15" fill="url(#f5-u3)"></rect><text x="250" y="338" text-anchor="end" font-family="Archivo,'Arial Narrow',Helvetica,sans-serif" font-size="28" font-weight="700" letter-spacing="0" fill="rgba(255,255,255,.62)">42</text></g><g transform="rotate(-8 250 236)" filter="url(#bay-u3)"><rect x="194" y="198" width="118" height="82" rx="12" fill="#FFFFFF"></rect><text x="206" y="218" font-family="Archivo,'Arial Narrow',Helvetica,sans-serif" font-size="9" font-weight="700" letter-spacing="1" fill="#12332C">DI SEKITARMU</text><rect x="206" y="226" width="88" height="1" fill="#E4E0D6"></rect><rect x="206" y="237" width="5" height="5" rx="2" fill="#C05C33"></rect><text x="217" y="242" font-family="'Plus Jakarta Sans',ui-sans-serif,system-ui,sans-serif" font-size="8" fill="#5C7A72">Dompet kulit cokelat</text><rect x="206" y="252" width="5" height="5" rx="2" fill="#D8A43C"></rect><text x="217" y="257" font-family="'Plus Jakarta Sans',ui-sans-serif,system-ui,sans-serif" font-size="8" fill="#5C7A72">Kunci motor</text><rect x="206" y="267" width="5" height="5" rx="2" fill="#1B7A63"></rect><text x="217" y="272" font-family="'Plus Jakarta Sans',ui-sans-serif,system-ui,sans-serif" font-size="8" fill="#5C7A72">Kartu pelajar</text></g></g>
<text x="104" y="167" font-family="Archivo" font-size="19" font-weight="700" fill="#12332C">Barang di sekitarmu</text>
<text x="92" y="187" font-family="Plus Jakarta Sans" font-size="12" font-weight="500" fill="#6B8A81">42 barang menunggu pemiliknya</text>
<rect x="22" y="376" width="340" height="140" rx="26" fill="url(#g4)" filter="url(#f5)"/>
<g fill="none"><g fill="none" stroke="#FFFFFF" stroke-opacity="0.09" stroke-width="2"><path d="M284 358L328 384V436L284 462L240 436V384Z"></path><path d="M352 406L396 432V484L352 510L308 484V432Z"></path><path d="M284 458L328 484V536L284 562L240 536V484Z"></path></g></g>
<path d="M51 402L73 402L84 427L73 452L51 452L40 427Z" fill="#FBF8F3" fill-opacity="0.16"/>
<g clip-path="url(#c7)"><g color="#FFFFFF" fill="none" stroke-linejoin="miter" stroke-miterlimit="8"><path d="M62 422V432M57 427H67" stroke="currentColor" stroke-width="2"></path></g></g>
<text x="96" y="411" font-family="Plus Jakarta Sans" font-size="9" font-weight="700" fill="#8FD4C4" letter-spacing="1">LAPORAN BARU</text>
<text x="96" y="437" font-family="Archivo" font-size="19" font-weight="700" fill="#FBF8F3">Mau lapor apa hari ini?</text>
<text x="40" y="479" font-family="Plus Jakarta Sans" font-size="10" font-weight="500" fill="#CFE6E0" fill-opacity="0.8">Barang hilang atau barang temuan —</text><text x="40" y="492" font-family="Plus Jakarta Sans" font-size="10" font-weight="500" fill="#CFE6E0" fill-opacity="0.8">dua-duanya mulai dari satu halaman.</text>
<rect x="230" y="469" width="114" height="29" rx="16" fill="#FFFFFF" filter="url(#f9)"/>
<text x="244" y="486" font-family="Plus Jakarta Sans" font-size="11" font-weight="700" fill="#12332C">Pilih folder</text>
<g color="#1B7A63" fill="none" stroke-linejoin="miter" stroke-miterlimit="8"><path d="M320 484H327M325 481L327 484L325 486" stroke="currentColor" stroke-width="1"></path></g>
<rect x="22" y="532" width="340" height="208" rx="26" fill="#CFE6E0" filter="url(#f11)"/>
<g fill="none"><defs><filter id="bu-u12" x="-40%" y="-40%" width="180%" height="180%"><feDropShadow dx="0" dy="5" stdDeviation="7" flood-color="#123B34" flood-opacity="0.22"></feDropShadow></filter><linearGradient id="u0-u12" x1="0%" y1="0%" x2="20%" y2="100%"><stop offset="0%" stop-color="#D9713F"></stop><stop offset="100%" stop-color="#C05C33"></stop></linearGradient><linearGradient id="u1-u12" x1="0%" y1="0%" x2="20%" y2="100%"><stop offset="0%" stop-color="#E9BC5A"></stop><stop offset="100%" stop-color="#D8A43C"></stop></linearGradient><linearGradient id="u2-u12" x1="0%" y1="0%" x2="20%" y2="100%"><stop offset="0%" stop-color="#2E9A7C"></stop><stop offset="100%" stop-color="#0F5A48"></stop></linearGradient><linearGradient id="u3-u12" x1="0%" y1="0%" x2="20%" y2="100%"><stop offset="0%" stop-color="#A8DFCE"></stop><stop offset="100%" stop-color="#6FBCA4"></stop></linearGradient><linearGradient id="u4-u12" x1="0%" y1="0%" x2="20%" y2="100%"><stop offset="0%" stop-color="#F2ECE0"></stop><stop offset="100%" stop-color="#D9D0BF"></stop></linearGradient><linearGradient id="u5-u12" x1="0%" y1="0%" x2="20%" y2="100%"><stop offset="0%" stop-color="#8FD4C4"></stop><stop offset="100%" stop-color="#1B7A63"></stop></linearGradient></defs><g transform="rotate(-10 64 704)" filter="url(#bu-u12)"><rect x="16" y="656" width="96" height="96" rx="24" fill="url(#u0-u12)"></rect></g><g transform="rotate(-5 124 700)" filter="url(#bu-u12)"><rect x="76" y="652" width="96" height="96" rx="24" fill="url(#u1-u12)"></rect></g><g transform="rotate(0 184 696)" filter="url(#bu-u12)"><rect x="136" y="648" width="96" height="96" rx="24" fill="url(#u2-u12)"></rect></g><g transform="rotate(5 244 700)" filter="url(#bu-u12)"><rect x="196" y="652" width="96" height="96" rx="24" fill="url(#u3-u12)"></rect></g><g transform="rotate(10 304 704)" filter="url(#bu-u12)"><rect x="256" y="656" width="96" height="96" rx="24" fill="url(#u4-u12)"></rect></g><g transform="rotate(14 364 708)" filter="url(#bu-u12)"><rect x="316" y="660" width="96" height="96" rx="24" fill="url(#u5-u12)"></rect></g></g>
<text x="112" y="569" font-family="Archivo" font-size="19" font-weight="700" fill="#12332C">Jelajahi sekitarmu</text>
<text x="83" y="589" font-family="Plus Jakarta Sans" font-size="12" font-weight="500" fill="#6B8A81">12 titik aktif · 18 warga ikut mencari</text>
<rect x="38" y="604" width="63" height="31" rx="14" fill="#12332C" filter="url(#f13)"/>
<text x="50" y="624" font-family="Plus Jakarta Sans" font-size="10" font-weight="700" fill="#FBF8F3">Semua</text>
<rect x="108" y="604" width="70" height="31" rx="14" fill="#FFFFFF" filter="url(#f14)"/>
<text x="120" y="624" font-family="Plus Jakarta Sans" font-size="10" font-weight="700" fill="#6B8A81">Dompet</text>
<rect x="185" y="604" width="56" height="31" rx="14" fill="#FFFFFF" filter="url(#f15)"/>
<text x="197" y="624" font-family="Plus Jakarta Sans" font-size="10" font-weight="700" fill="#6B8A81">Kunci</text>
<rect x="248" y="604" width="56" height="31" rx="14" fill="#FFFFFF" filter="url(#f16)"/>
<text x="260" y="624" font-family="Plus Jakarta Sans" font-size="10" font-weight="700" fill="#6B8A81">Kartu</text>
<g transform="rotate(-10 64 696)"><g color="#FFFFFF" fill="none" stroke-linejoin="miter" stroke-miterlimit="8"><path d="M59 691 60 688h6l-1 3" stroke="currentColor" stroke-width="2"></path><path d="M56 691H72L74 695V700L72 703H56L54 700V695Z" stroke="currentColor" stroke-width="2"></path><path d="M65 695h8v5H65z" stroke="currentColor" stroke-width="2"></path></g></g>
<g transform="rotate(-5 124 692)"><g color="#FFFFFF" fill="none" stroke-linejoin="miter" stroke-miterlimit="8"><path d="M120 686L125 684L129 686V691L125 693L120 691Z" stroke="currentColor" stroke-width="2"></path><path d="M125 693V701" stroke="currentColor" stroke-width="2"></path><path d="M125 696H129" stroke="currentColor" stroke-width="2"></path><path d="M125 698H128" stroke="currentColor" stroke-width="2"></path></g></g>
<g color="#FFFFFF" fill="none" stroke-linejoin="miter" stroke-miterlimit="8"><path d="M179 678H189L190 680V696L189 698H179L178 696V680Z" stroke="currentColor" stroke-width="2"></path><path d="M182 681H186" stroke="currentColor" stroke-width="2"></path><path d="M181 695H187" stroke="currentColor" stroke-width="2"></path></g>
<g transform="rotate(5 244 692)"><g color="#12332C" fill="none" stroke-linejoin="miter" stroke-miterlimit="8"><path d="M237 684L239 682H246L251 687V700L249 702H239L237 700Z" stroke="currentColor" stroke-width="2"></path><path d="M246 682V687H251" stroke="currentColor" stroke-width="2"></path><path d="M241 692H248M241 696H248M241 699H245" stroke="currentColor" stroke-width="2"></path></g></g>
<g transform="rotate(10 304 696)"><g color="#12332C" fill="none" stroke-linejoin="miter" stroke-miterlimit="8"><path d="M300 693V690l2 -2h4l2 2v3" stroke="currentColor" stroke-width="2"></path><path d="M298 693H310L312 696V702L310 705H298L296 702V696Z" stroke="currentColor" stroke-width="2"></path><path d="M299 705V699h10v6" stroke="currentColor" stroke-width="2"></path></g></g>
<g transform="rotate(14 364 700)"><g color="#FFFFFF" fill="none" stroke-linejoin="miter" stroke-miterlimit="8"><path d="M361 690H367V693L369 697V708L367 710H361L359 708V697L361 693Z" stroke="currentColor" stroke-width="2"></path><path d="M359 701H369" stroke="currentColor" stroke-width="2"></path></g></g>
<rect x="22" y="62" width="40" height="40" rx="21" fill="url(#g23)" filter="url(#f24)"/>
<g color="#FFFFFF" fill="none" stroke-linejoin="miter" stroke-miterlimit="8"><path d="M42 75L45 77V80L42 82L39 80V77Z" stroke="currentColor" stroke-width="1"></path><path d="M36 90V87L39 84H45L48 87V90" stroke="currentColor" stroke-width="1"></path></g>
<rect x="74" y="65" width="176" height="34" rx="18" fill="#FFFFFF" filter="url(#f26)"/>
<g fill="none"><circle cx="88" cy="77" r="2" fill="#8FD4C4" fill-opacity=".5"></circle><circle cx="88" cy="77" r="1" fill="#1B7A63"></circle></g>
<text x="97" y="84" font-family="Plus Jakarta Sans" font-size="11" font-weight="700" fill="#12332C" letter-spacing="1">CISAAT, SUKABUMI</text>
<g color="#6B8A81" fill="none" stroke-linejoin="miter" stroke-miterlimit="8"><path d="M235 78H237M237 77L237 78L237 78" stroke="currentColor" stroke-width="0"></path></g>
<rect x="272" y="62" width="40" height="40" rx="21" fill="#FFFFFF" filter="url(#f29)"/>
<g color="#12332C" fill="none" stroke-linejoin="miter" stroke-miterlimit="8"><path d="M291 75L295 78V83L291 86L286 83V78Z" stroke="currentColor" stroke-width="1"></path><path d="M294 85L299 89" stroke="currentColor" stroke-width="2"></path></g>
<rect x="322" y="62" width="40" height="40" rx="21" fill="#FFFFFF" filter="url(#f31)"/>
<g color="#12332C" fill="none" stroke-linejoin="miter" stroke-miterlimit="8"><path d="M339 85V81L340 77H344L345 81V85L347 88H337Z" stroke="currentColor" stroke-width="1"></path><path d="M340 89H344" stroke="currentColor" stroke-width="1"></path></g>
<rect x="342" y="71" width="11" height="11" rx="4" fill="#D8503A"/><rect x="343" y="72" width="9" height="9" rx="3" fill="none" stroke="#FFFFFF" stroke-width="2"/>
<rect x="18" y="760" width="228" height="58" rx="29" fill="#FFFFFF" filter="url(#f33)"/>
<rect x="26" y="770" width="116" height="38" rx="19" fill="#CFE6E0"/>
<g color="#1B7A63" fill="none" stroke-linejoin="miter" stroke-miterlimit="8"><path d="M43 789L50 782L58 789" stroke="currentColor" stroke-width="1"></path><path d="M45 787V794L47 796H54L56 794V787" stroke="currentColor" stroke-width="1"></path><path d="M49 796V792H52V796" stroke="currentColor" stroke-width="1"></path></g>
<text x="68" y="792" font-family="Plus Jakarta Sans" font-size="13" font-weight="700" fill="#1B7A63">Beranda</text>
<g color="#8AA49C" fill="none" stroke-linejoin="miter" stroke-miterlimit="8"><path d="M163 781L170 785V793L163 797L156 793V785Z" stroke="currentColor" stroke-width="1"></path><path d="M166 786L164 790L160 792L163 788Z" stroke="currentColor" stroke-width="1"></path></g>
<g color="#8AA49C" fill="none" stroke-linejoin="miter" stroke-miterlimit="8"><path d="M198 783H214L216 786V792L214 794H206L202 797V794H198L197 792V786Z" stroke="currentColor" stroke-width="1"></path><path d="M203 788L204 789L203 790L201 789Z" fill="currentColor"></path><path d="M206 788L208 789L206 790L205 789Z" fill="currentColor"></path><path d="M210 788L211 789L210 790L209 789Z" fill="currentColor"></path></g>
<rect x="218" y="769" width="11" height="11" rx="4" fill="#D8503A"/><rect x="219" y="770" width="9" height="9" rx="3" fill="none" stroke="#FFFFFF" stroke-width="2"/>
<g color="#8AA49C" fill="none" stroke-linejoin="miter" stroke-miterlimit="8"><path d="M249 782L252 784V787L249 789L246 787V784Z" stroke="currentColor" stroke-width="1"></path><path d="M243 797V794L246 791H253L256 794V797" stroke="currentColor" stroke-width="1"></path></g>
<path d="M316 756L350 756L366 789L350 822L316 822L300 789Z" fill="url(#g38)"/>
<g clip-path="url(#c39)"><g color="#FFFFFF" fill="none" stroke-linejoin="miter" stroke-miterlimit="8"><path d="M333 782V796M326 789H340" stroke="currentColor" stroke-width="2"></path></g></g>
<text x="24" y="28" font-family="Plus Jakarta Sans" font-size="15" font-weight="700" fill="#12332C">11:05</text>
<g fill="none"><rect x="291" y="27" width="3" height="3" rx="1" fill="#12332C"></rect><rect x="296" y="24" width="3" height="6" rx="1" fill="#12332C"></rect><rect x="301" y="21" width="3" height="9" rx="1" fill="#12332C"></rect><rect x="306" y="18" width="3" height="12" rx="1" fill="#12332C"></rect></g>
<g fill="none"><path d="M316 22A10 10 0 0 1 330 22" stroke="#12332C" stroke-width="2" fill="none"></path><path d="M319 26A6 6 0 0 1 327 26" stroke="#12332C" stroke-width="2" fill="none"></path><circle cx="323" cy="28" r="1" fill="#12332C"></circle></g>
<g fill="none"><rect x="338" y="18" width="21" height="11" rx="4" stroke="#12332C" stroke-opacity=".4"></rect><rect x="339" y="20" width="18" height="8" rx="2" fill="#12332C"></rect><path d="M360 22V26C361 25 362 25 362 24C362 23 361 23 360 22Z" fill="#12332C" fill-opacity=".4"></path></g>
</svg>
