<?xml version="1.0" encoding="UTF-8"?>
<svg xmlns="http://www.w3.org/2000/svg" width="390" height="248" viewBox="0 0 390 248" role="img" aria-label="Balikin — Kartu 3A Reputasimu">
<title>Balikin — Kartu 3A Reputasimu</title>
<desc>Satuan piksel logis. Huruf: Archivo, Plus Jakarta Sans.</desc>
<defs><linearGradient id="g1" gradientUnits="userSpaceOnUse" x1="132" y1="-48" x2="258" y2="296"><stop offset="0%" stop-color="#DCE9E1" stop-opacity="1"/><stop offset="100%" stop-color="#F6F2EA" stop-opacity="1"/></linearGradient><linearGradient id="g2" gradientUnits="userSpaceOnUse" x1="109" y1="-28" x2="271" y2="276"><stop offset="0%" stop-color="#17463D" stop-opacity="1"/><stop offset="100%" stop-color="#0D2F29" stop-opacity="1"/></linearGradient><filter id="f3" x="-60%" y="-60%" width="220%" height="220%"><feDropShadow dx="0" dy="12" stdDeviation="15" flood-color="#0D2F29" flood-opacity="0.28"/></filter><linearGradient id="g4" gradientUnits="userSpaceOnUse" x1="56" y1="63" x2="108" y2="154"><stop offset="0%" stop-color="#8FD4C4" stop-opacity="1"/><stop offset="100%" stop-color="#1B7A63" stop-opacity="1"/></linearGradient><clipPath id="c5"><path d="M61 72L103 72L124 108L103 145L61 145L40 108Z"/></clipPath><linearGradient id="g7" gradientUnits="userSpaceOnUse" x1="140" y1="144" x2="300" y2="144"><stop offset="0%" stop-color="#8FD4C4" stop-opacity="1"/><stop offset="100%" stop-color="#B7E6D8" stop-opacity="1"/></linearGradient><clipPath id="c8"><path d="M46 192L60 192L66 204L60 215L46 215L40 204Z"/></clipPath><clipPath id="c10"><path d="M80 192L92 192L99 204L92 215L80 215L73 204Z"/></clipPath><clipPath id="c12"><path d="M112 192L126 192L132 204L126 215L112 215L106 204Z"/></clipPath><clipPath id="c14"><path d="M146 192L158 192L165 204L158 215L146 215L139 204Z"/></clipPath></defs>
<rect x="0" y="0" width="1122" height="248" fill="#F6F2EA"/>
<rect x="0" y="0" width="390" height="248" fill="url(#g1)"/>
<rect x="20" y="20" width="340" height="208" rx="26" fill="url(#g2)" filter="url(#f3)"/>
<path d="M61 72L103 72L124 108L103 145L61 145L40 108Z" fill="url(#g4)"/>
<g clip-path="url(#c5)"><g fill="none"><path d="M82 100L91 108L82 118L73 108Z" fill="#0E3A31" fill-opacity=".55"></path><path d="M82 104L86 108L82 113L78 108Z" fill="#EAF7F2"></path></g></g>
<text x="140" y="57" font-family="Plus Jakarta Sans" font-size="9" font-weight="700" fill="#8FD4C4" letter-spacing="1">TINGKAT 3 DARI 5</text>
<text x="140" y="85" font-family="Archivo" font-size="24" font-weight="700" fill="#FBF8F3" letter-spacing="-1">PENOLONG</text>
<text x="140" y="118" font-family="Archivo" font-size="27" font-weight="700" fill="#FFFFFF" letter-spacing="-1">720</text>
<text x="187" y="119" font-family="Plus Jakarta Sans" font-size="10" font-weight="700" fill="#FBF8F3" letter-spacing="1" fill-opacity="0.6">POIN</text>
<rect x="140" y="140" width="200" height="8" rx="5" fill="#FBF8F3" fill-opacity="0.16"/>
<rect x="140" y="140" width="160" height="8" rx="5" fill="url(#g7)"/>
<text x="140" y="166" font-family="Plus Jakarta Sans" font-size="10" font-weight="500" fill="#CFE6E0" fill-opacity="0.82">180 poin lagi ke</text>
<text x="224" y="166" font-family="Plus Jakarta Sans" font-size="10" font-weight="700" fill="#8FD4C4">Penjaga Kota</text>
<rect x="40" y="180" width="300" height="1" fill="#FBF8F3" fill-opacity="0.1"/>
<path d="M46 192L60 192L66 204L60 215L46 215L40 204Z" fill="#8FD4C4" fill-opacity="0.16"/>
<g clip-path="url(#c8)"><g color="#8FD4C4" fill="none" stroke-linejoin="miter" stroke-miterlimit="8"><path d="M49 204 52 207 57 200" stroke="currentColor" stroke-width="1"></path></g></g>
<path d="M80 192L92 192L99 204L92 215L80 215L73 204Z" fill="#8FD4C4" fill-opacity="0.16"/>
<g clip-path="url(#c10)"><g color="#8FD4C4" fill="none" stroke-linejoin="miter" stroke-miterlimit="8"><path d="M82 199H85L85 200V202L85 203H82L81 202V200Z" stroke="currentColor" stroke-width="1"></path><path d="M87 199H90L91 200V202L90 203H87L87 202V200Z" stroke="currentColor" stroke-width="1"></path><path d="M82 204H85L85 205V207L85 208H82L81 207V205Z" stroke="currentColor" stroke-width="1"></path><path d="M87 204H90L91 205V207L90 208H87L87 207V205Z" fill="currentColor"></path></g></g>
<path d="M112 192L126 192L132 204L126 215L112 215L106 204Z" fill="#8FD4C4" fill-opacity="0.16"/>
<g clip-path="url(#c12)"><g color="#8FD4C4" fill="none" stroke-linejoin="miter" stroke-miterlimit="8"><path d="M114 200H124L124 202V205L124 207H119L117 208V207H114L114 205V202Z" stroke="currentColor" stroke-width="1"></path><path d="M117 203L118 203L117 204L116 203Z" fill="currentColor"></path><path d="M119 203L120 203L119 204L118 203Z" fill="currentColor"></path><path d="M121 203L122 203L121 204L120 203Z" fill="currentColor"></path></g></g>
<path d="M146 192L158 192L165 204L158 215L146 215L139 204Z" fill="#8FD4C4" fill-opacity="0.16"/>
<g clip-path="url(#c14)"><g color="#8FD4C4" fill="none" stroke-linejoin="miter" stroke-miterlimit="8"><path d="M151 199L154 201V204L151 206L148 204V201Z" stroke="currentColor" stroke-width="1"></path><path d="M153 205L156 208" stroke="currentColor" stroke-width="1"></path></g></g>
<text x="234" y="204" font-family="Plus Jakarta Sans" font-size="10" font-weight="600" fill="#8FD4C4">5 dari 9 lencana</text>
<g color="#8FD4C4" fill="none" stroke-linejoin="miter" stroke-miterlimit="8"><path d="M331 202H338M335 199L338 202L335 204" stroke="currentColor" stroke-width="1"></path></g>
</svg>
